<?xml version="1.0" standalone="no"?>
<!DOCTYPE svg PUBLIC "-//W3C//DTD SVG 20010904//EN"
 "http://www.w3.org/TR/2001/REC-SVG-20010904/DTD/svg10.dtd">
<svg version="1.0" xmlns="http://www.w3.org/2000/svg"
 width="120.000000pt" height="102.000000pt" viewBox="0 0 120.000000 102.000000"
 preserveAspectRatio="xMidYMid meet">
<metadata>
Created by potrace 1.10, written by Peter Selinger 2001-2011
</metadata>
<g transform="translate(0.000000,102.000000) scale(0.100000,-0.100000)"
fill="#000000" stroke="none">
<path d="M443 705 c-36 -15 -83 -58 -83 -75 0 -5 -5 -10 -11 -10 -5 0 -8 -4
-4 -9 3 -5 1 -12 -4 -15 -5 -4 -9 -33 -8 -66 2 -65 18 -93 81 -144 33 -27 46
-31 94 -30 32 0 71 7 88 17 l31 16 49 -50 c49 -50 84 -63 84 -32 0 10 -23 41
-52 70 -48 49 -51 54 -36 70 9 10 17 21 17 26 1 4 1 8 2 10 7 20 6 61 -2 98
-23 105 -149 168 -246 124z m145 -55 c86 -53 80 -190 -11 -233 -100 -48 -197
14 -197 126 0 26 5 47 11 47 5 0 8 4 5 9 -6 9 26 41 59 59 32 18 97 14 133 -8z"/>
</g>
</svg>
